<?xml version="1.0" encoding="UTF-8"?><svg xmlns="http://www.w3.org/2000/svg" viewBox="0 0 94.88 36.99"><defs><style>.d{opacity:.4;}.e{fill:#8e8e8e;}</style></defs><g id="a"/><g id="b"><g id="c"><g class="d"><path class="e" d="M6.17,2.67c-1.57,1.74-2.35,4.25-2.35,7.52v2.38c0,1.29-.27,2.33-.8,3.12-.52,.79-1.24,1.18-2.14,1.18H0v3.21H.88c.9,0,1.62,.39,2.14,1.18,.53,.79,.8,1.83,.8,3.12v2.41c0,3.28,.78,5.79,2.35,7.51,1.57,1.73,3.68,2.63,6.34,2.68h1.19v-3.25h-1.19c-1.61,0-2.83-.53-3.66-1.6-.83-1.07-1.25-2.57-1.25-4.51v-2.63c0-2.31-.34-3.9-1.03-4.79-.69-.88-1.79-1.42-3.32-1.63v-.18c1.5-.17,2.6-.72,3.3-1.64,.7-.93,1.05-2.52,1.05-4.77v-2.63c0-1.93,.42-3.43,1.25-4.48s2.06-1.6,3.66-1.63h1.19V0h-1.19c-2.66,.03-4.77,.92-6.34,2.67Z"/><path class="e" d="M62.55,8.31c-1.52,0-2.92,.33-4.19,.99-1.27,.66-2.13,1.42-2.57,2.29v-2.76h-4.66V31.28h5.06v-12.74c0-3.63,1.65-5.44,4.96-5.44,1.4,0,2.53,.44,3.38,1.32,.85,.87,1.28,2.28,1.28,4.21v12.65h5.06v-13.7c0-3.22-.77-5.57-2.31-7.04-1.54-1.48-3.54-2.22-6-2.22Z"/><path class="e" d="M40.37,20.38c-.88-.67-2.67-1.55-5.36-2.63-.9-.35-1.55-.61-1.93-.77-.38-.16-.87-.4-1.45-.7-.58-.3-.99-.6-1.23-.88s-.35-.57-.35-.85c0-.62,.34-1.09,1.03-1.43,.69-.34,1.6-.5,2.75-.5,1.84,0,3.57,.67,5.18,2.01l3.38-2.76c-2.11-2.37-4.91-3.56-8.39-3.56-2.49,0-4.56,.55-6.2,1.65-1.64,1.09-2.46,2.59-2.46,4.49,0,.8,.13,1.51,.4,2.14,.27,.62,.57,1.14,.9,1.56,.34,.41,.88,.83,1.63,1.29,.75,.45,1.38,.8,1.91,1.05,.53,.25,1.34,.61,2.42,1.08,.09,.03,.19,.07,.3,.12,.12,.04,.21,.07,.28,.11,.08,.03,.18,.07,.29,.13,1.08,.44,1.9,.8,2.46,1.06,.55,.26,1.04,.59,1.46,.98,.43,.4,.64,.82,.64,1.25,0,.76-.35,1.34-1.05,1.72-.7,.37-1.6,.56-2.68,.56-2.22,0-4.26-.89-6.11-2.68l-3.29,2.98c.97,1.23,2.25,2.21,3.86,2.93,1.61,.72,3.36,1.08,5.27,1.08,2.67,0,4.79-.59,6.35-1.76,1.57-1.17,2.35-2.8,2.35-4.88-.03-1.96-.82-3.55-2.38-4.79Z"/><path class="e" d="M94.01,16.87c-.91,0-1.63-.39-2.16-1.18-.52-.8-.78-1.84-.78-3.12v-2.38c0-3.28-.78-5.78-2.33-7.52-1.55-1.75-3.67-2.64-6.37-2.67h-1.18V3.25h1.18c1.61,.03,2.83,.57,3.66,1.63,.83,1.05,1.25,2.55,1.25,4.48v2.63c0,2.25,.36,3.85,1.08,4.77,.72,.92,1.81,1.47,3.28,1.64v.18c-1.52,.2-2.63,.75-3.32,1.63-.69,.88-1.03,2.48-1.03,4.79v2.63c0,1.93-.42,3.44-1.25,4.51-.83,1.07-2.06,1.6-3.66,1.6h-1.18v3.25h1.18c2.69-.05,4.81-.95,6.37-2.68,1.55-1.72,2.33-4.23,2.33-7.51v-2.41c0-1.29,.26-2.34,.78-3.12,.53-.79,1.25-1.18,2.16-1.18h.88v-3.21h-.88Z"/></g></g></g></svg>